<svg width="28" height="41" viewBox="0 0 28 41" fill="none" xmlns="http://www.w3.org/2000/svg">
<path d="M5.97643 10.3872C5.43747 9.34555 5.84641 8.06419 6.88916 7.52728V7.52728C7.92899 6.99188 9.20598 7.3994 9.74346 8.43815L15.8539 20.2473C17.1837 18.4273 18.6743 15.1103 17.1689 10.3645C14.357 1.50546 3.02259 0 3.02259 0C3.02259 0 -2.32149 10.1107 3.26881 17.5354C6.26316 21.5127 9.82971 22.221 12.0842 22.1923L5.97643 10.3872Z" fill="#BAD3D3"/>
<path d="M26.2202 0.699219C26.2202 0.699219 20.0836 1.0818 15.459 4.69131C16.8529 6.19256 17.8968 7.98424 18.5158 9.93689C20.5663 16.4072 17.661 20.5284 16.0723 22.1906H16.072C19.4217 22.2367 22.6112 20.7601 24.7435 18.1767C30.8414 11.1597 26.2199 0.699542 26.2199 0.699542L26.2202 0.699219Z" fill="#BAD3D3"/>
<path fill-rule="evenodd" clip-rule="evenodd" d="M4.49531 29.6818C7.07891 27.3138 10.4561 26.0003 13.9612 26C17.4658 26.0003 20.8436 27.3137 23.4276 29.6818C26.0113 32.0495 27.6138 35.2998 27.9191 38.7913C27.9449 39.1035 27.8386 39.4125 27.6264 39.6429C27.4143 39.8734 27.1154 40.0047 26.802 40.0047H1.1203C0.80718 40.0047 0.508254 39.8734 0.296133 39.6429C0.0840103 39.4122 -0.0220507 39.1035 0.003833 38.7913C0.309046 35.3001 1.91131 32.0499 4.49531 29.6818ZM9.50019 33.0049C10.3286 33.0049 11.0002 32.3333 11.0002 31.5049C11.0002 30.6765 10.3286 30.0049 9.50019 30.0049C8.67176 30.0049 8.00019 30.6765 8.00019 31.5049C8.00019 32.3333 8.67176 33.0049 9.50019 33.0049ZM9.8417 34.2474C10.2573 33.8838 10.8891 33.9259 11.2528 34.3415C11.7355 34.8932 12.5991 35.5361 13.5706 35.7169C14.4538 35.8812 15.5639 35.6944 16.7476 34.3415C17.1113 33.9259 17.7431 33.8838 18.1587 34.2474C18.5743 34.6111 18.6165 35.2429 18.2528 35.6585C16.6365 37.5057 14.83 37.9855 13.2048 37.6831C11.668 37.3972 10.4316 36.4402 9.74763 35.6585C9.38394 35.2429 9.42606 34.6111 9.8417 34.2474ZM18.5002 33C19.3286 33 20.0002 32.3284 20.0002 31.5C20.0002 30.6716 19.3286 30 18.5002 30C17.6718 30 17.0002 30.6716 17.0002 31.5C17.0002 32.3284 17.6718 33 18.5002 33Z" fill="#558A76"/>
<path fill-rule="evenodd" clip-rule="evenodd" d="M7.55301 8.60579C8.04698 8.3588 8.64766 8.55903 8.89465 9.05301L15.0002 21.2642V27.5002C15.0002 28.0525 14.5525 28.5002 14.0002 28.5002C13.4479 28.5002 13.0002 28.0525 13.0002 27.5002V21.7363L7.10579 9.94743C6.8588 9.45345 7.05903 8.85278 7.55301 8.60579Z" fill="#558A76"/>
</svg>
